Coordinates
version=1
nRows=65
nColumns=12
inDegrees=yes

Units are S.I. units (second, meters, Newtons, ...)
Angles are in degrees

endheader
time	SC_y	SC_z	SC_x	AC_y	AC_z	AC_x	GH_y	GH_z	GH_yy	EL_x	PS_y
       0.0              -51.67          23.58          41.66           50.3          1.407         -17.83         -52.97          59.42          135.7          6.014          5.742
  0.003709              -51.67          23.58          41.67           50.3          1.408         -17.83         -52.99          59.42          135.7          6.026          5.751
  0.007417              -51.66          23.58          41.67          50.29          1.409         -17.83          -53.0          59.42          135.7          6.038          5.761
   0.01113              -51.66          23.58          41.68          50.29          1.411         -17.83         -53.02          59.43          135.6          6.052          5.772
   0.01483              -51.66          23.57          41.68          50.29          1.412         -17.83         -53.03          59.43          135.6          6.066          5.783
   0.01854              -51.66          23.57          41.69          50.28          1.414         -17.83         -53.05          59.43          135.6          6.081          5.795
   0.02225              -51.65          23.57          41.69          50.28          1.415         -17.83         -53.07          59.43          135.5          6.097          5.808
   0.02596              -51.65          23.56           41.7          50.28          1.417         -17.83         -53.09          59.43          135.5          6.115          5.822
   0.02967              -51.65          23.56          41.71          50.27          1.419         -17.83         -53.11          59.44          135.4          6.133          5.836
   0.03338              -51.64          23.55          41.72          50.27          1.421         -17.83         -53.13          59.44          135.4          6.153          5.852
   0.03709              -51.64          23.55          41.72          50.26          1.423         -17.83         -53.15          59.44          135.3          6.175          5.869
   0.04079              -51.63          23.54          41.73          50.26          1.425         -17.82         -53.18          59.45          135.2          6.198          5.887
    0.0445              -51.63          23.54          41.74          50.25          1.428         -17.82          -53.2          59.45          135.2          6.223          5.907
   0.04821              -51.62          23.53          41.75          50.25          1.431         -17.82         -53.23          59.45          135.1          6.249          5.928
   0.05192              -51.62          23.53          41.76          50.24          1.434         -17.82         -53.26          59.46          135.0          6.279          5.951
   0.05563              -51.61          23.52          41.78          50.23          1.437         -17.82          -53.3          59.46          135.0           6.31          5.976
   0.05934              -51.61          23.51          41.79          50.22           1.44         -17.82         -53.34          59.46          134.9          6.344          6.003
   0.06305               -51.6           23.5           41.8          50.22          1.444         -17.82         -53.38          59.47          134.8          6.382          6.033
   0.06675              -51.59           23.5          41.82          50.21          1.448         -17.82         -53.42          59.47          134.7          6.422          6.065
   0.07046              -51.58          23.49          41.83           50.2          1.453         -17.82         -53.47          59.48          134.5          6.467          6.101
   0.07417              -51.57          23.48          41.85          50.19          1.458         -17.82         -53.52          59.49          134.4          6.516           6.14
   0.07788              -51.56          23.46          41.87          50.17          1.463         -17.81         -53.58          59.49          134.3           6.57          6.182
   0.08159              -51.55          23.45           41.9          50.16          1.469         -17.81         -53.65           59.5          134.1          6.629          6.229
    0.0853              -51.54          23.44          41.92          50.15          1.476         -17.81         -53.72          59.51          133.9          6.695          6.282
     0.089              -51.53          23.42          41.95          50.13          1.483         -17.81          -53.8          59.52          133.7          6.768           6.34
   0.09271              -51.51           23.4          41.98          50.11          1.492         -17.81         -53.89          59.53          133.5           6.85          6.405
   0.09642              -51.49          23.38          42.02          50.09          1.501          -17.8         -53.99          59.54          133.3          6.942          6.477
    0.1001              -51.47          23.36          42.05          50.07          1.511          -17.8          -54.1          59.55          133.0          7.045          6.559
    0.1038              -51.45          23.33           42.1          50.04          1.523          -17.8         -54.23          59.57          132.7          7.161          6.651
    0.1075              -51.42          23.31          42.15          50.01          1.537         -17.79         -54.38          59.58          132.4          7.294          6.756
    0.1113               -51.4          23.27          42.21          49.98          1.552         -17.79         -54.54           59.6          132.0          7.444          6.876
     0.115              -51.36          23.24          42.27          49.94           1.57         -17.79         -54.73          59.62          131.5          7.618          7.013
    0.1187              -51.32          23.19          42.35          49.89           1.59         -17.78         -54.95          59.65          131.0          7.818          7.172
    0.1224              -51.28          23.14          42.44          49.84          1.614         -17.77         -55.21          59.68          130.4           8.05          7.356
    0.1261              -51.23          23.08          42.54          49.78          1.641         -17.77          -55.5          59.71          129.6          8.322          7.572
    0.1298              -51.17          23.01          42.66          49.71          1.674         -17.76         -55.86          59.75          128.8          8.642          7.826
    0.1335              -51.09          22.93          42.81          49.62          1.713         -17.75         -56.27           59.8          127.8          9.023          8.128
    0.1372              -51.01          22.83          42.98          49.52          1.759         -17.74         -56.77          59.86          126.6           9.48           8.49
    0.1409               -50.9          22.71          43.19           49.4          1.815         -17.72         -57.38          59.93          125.1          10.03          8.928
    0.1446              -50.77          22.56          43.45          49.24          1.884          -17.7         -58.12          60.01          123.3          10.71          9.463
    0.1483              -50.61          22.38          43.76          49.06          1.968         -17.68         -59.03          60.12          121.1          11.54          10.12
    0.1521              -50.41          22.15          44.16          48.82          2.074         -17.65         -60.17          60.25          118.4          12.58          10.95
    0.1558              -50.16          21.87          44.66          48.53          2.207         -17.62          -61.6          60.41          114.9          13.89          11.98
    0.1595              -49.85           21.5          45.29          48.15          2.376         -17.57         -63.42          60.62          110.5          15.55           13.3
    0.1632              -49.44          21.04           46.1          47.68          2.592         -17.51         -65.76          60.89          104.9          17.68          14.99
    0.1669              -48.92          20.44          47.13          47.06           2.87         -17.44         -68.75          61.24           97.7          20.41          17.16
    0.1706              -48.25          19.68          48.46          46.28          3.224         -17.35         -72.57          61.68          88.48           23.9          19.92
    0.1743              -47.41          18.73          50.13          45.29           3.67         -17.23         -77.38          62.23          76.89          28.28           23.4
     0.178              -46.39          17.56          52.16          44.09          4.214         -17.08         -83.24           62.9          62.76          33.63          27.64
    0.1817               -45.2          16.21          54.52          42.69          4.843         -16.91         -90.03          63.68          46.39          39.83          32.55
    0.1854              -43.92          14.74          57.07          41.18          5.525         -16.73         -97.39          64.53          28.66          46.54          37.87
    0.1891              -42.64          13.28          59.62          39.67          6.207         -16.55         -104.7          65.37          10.93          53.24          43.19
    0.1928              -41.45          11.93          61.97          38.28          6.837         -16.38         -111.5          66.16         -5.448          59.44          48.11
    0.1966              -40.43          10.76          64.01          37.08          7.381         -16.24         -117.4          66.83         -19.57          64.79          52.35
    0.2003              -39.59          9.803          65.67          36.09          7.826         -16.12         -122.2          67.38         -31.17          69.17          55.82
     0.204              -38.93          9.041           67.0           35.3          8.181         -16.02         -126.0          67.82         -40.39          72.66          58.59
    0.2077               -38.4          8.445          68.04          34.69          8.459         -15.95         -129.0          68.17          -47.6          75.39          60.76
    0.2114               -38.0          7.981          68.85          34.21          8.675         -15.89         -131.3          68.43         -53.23          77.52          62.44
    0.2151              -37.68          7.618          69.48          33.84          8.844         -15.85         -133.2          68.64         -57.62          79.19          63.76
    0.2188              -37.43          7.333          69.98          33.54          8.977         -15.81         -134.6          68.81         -61.08          80.49           64.8
    0.2225              -37.23          7.106          70.37          33.31          9.082         -15.78         -135.7          68.94         -63.82          81.53          65.62
    0.2262              -37.07          6.924          70.69          33.12          9.167         -15.76         -136.7          69.04         -66.02          82.36          66.28
    0.2299              -36.94          6.777          70.94          32.97          9.236         -15.74         -137.4          69.13          -67.8          83.04          66.82
    0.2336              -36.84          6.657          71.15          32.85          9.292         -15.73         -138.0           69.2         -69.26          83.59          67.26
    0.2373              -36.75          6.557          71.33          32.74          9.338         -15.72         -138.5          69.26         -70.47          84.05          67.62
